<svg width="601" height="771" viewBox="0 0 601 771" fill="none" xmlns="http://www.w3.org/2000/svg">
<path d="M424.374 385.5C424.374 597.86 253.456 770 42.6324 770C-168.191 770 -339.109 597.86 -339.109 385.5C-339.109 173.14 -168.191 1 42.6324 1C253.456 1 424.374 173.14 424.374 385.5Z" stroke="#BB6BD9" stroke-width="2"/>
<path d="M364.514 373.197C364.615 375.919 364.682 378.649 364.716 381.387L363.716 381.399C363.733 382.764 363.741 384.131 363.741 385.5C363.741 386.869 363.733 388.236 363.716 389.601L364.716 389.613C364.682 392.351 364.615 395.081 364.514 397.803L363.515 397.766C363.414 400.492 363.279 403.21 363.112 405.919L364.11 405.981C363.941 408.713 363.738 411.437 363.503 414.151L362.506 414.064C362.27 416.782 362.001 419.489 361.699 422.187L362.692 422.298C362.387 425.018 362.049 427.729 361.678 430.428L360.687 430.292C360.316 432.993 359.911 435.684 359.474 438.364L360.46 438.525C360.02 441.226 359.546 443.915 359.039 446.593L358.057 446.407C357.55 449.086 357.01 451.754 356.438 454.409L357.416 454.619C356.839 457.294 356.231 459.956 355.589 462.605L354.617 462.37C353.976 465.019 353.302 467.656 352.597 470.28L353.562 470.54C352.852 473.181 352.11 475.808 351.335 478.422L350.376 478.138C349.602 480.751 348.796 483.351 347.958 485.937L348.909 486.245C348.066 488.846 347.192 491.432 346.286 494.003L345.343 493.671C344.438 496.242 343.5 498.798 342.533 501.339L343.467 501.695C342.494 504.249 341.49 506.787 340.455 509.309L339.53 508.93C338.496 511.452 337.43 513.957 336.335 516.447L337.25 516.849C336.149 519.35 335.018 521.834 333.857 524.301L332.953 523.875C331.792 526.341 330.601 528.79 329.381 531.221L330.275 531.67C329.049 534.111 327.794 536.535 326.51 538.94L325.628 538.469C324.344 540.873 323.031 543.259 321.69 545.626L322.56 546.119C321.213 548.495 319.837 550.852 318.433 553.19L317.576 552.675C316.173 555.011 314.741 557.328 313.282 559.625L314.126 560.161C312.661 562.466 311.168 564.75 309.648 567.015L308.818 566.457C307.299 568.719 305.753 570.961 304.179 573.182L304.995 573.76C303.416 575.988 301.81 578.195 300.177 580.381L299.376 579.782C297.746 581.964 296.089 584.125 294.406 586.264L295.191 586.882C293.502 589.028 291.787 591.152 290.046 593.253L289.276 592.615C287.539 594.712 285.775 596.786 283.987 598.838L284.74 599.495C282.946 601.553 281.126 603.588 279.28 605.599L278.544 604.923C276.703 606.93 274.838 608.913 272.948 610.871L273.668 611.566C271.772 613.531 269.852 615.472 267.908 617.388L267.206 616.676C265.267 618.587 263.304 620.473 261.318 622.335L262.002 623.064C260.01 624.931 257.994 626.773 255.956 628.589L255.291 627.843C253.258 629.653 251.203 631.438 249.125 633.197L249.772 633.961C247.688 635.724 245.582 637.462 243.454 639.173L242.828 638.394C240.707 640.1 238.564 641.779 236.4 643.431L237.006 644.226C234.837 645.882 232.646 647.511 230.434 649.112L229.848 648.302C227.643 649.898 225.418 651.467 223.172 653.007L223.738 653.832C221.488 655.376 219.218 656.891 216.927 658.378L216.383 657.539C214.1 659.022 211.797 660.475 209.476 661.9L209.999 662.753C207.674 664.179 205.33 665.577 202.967 666.946L202.466 666.08C200.111 667.444 197.737 668.779 195.345 670.084L195.823 670.962C193.43 672.268 191.018 673.544 188.588 674.791L188.131 673.901C185.71 675.142 183.271 676.354 180.815 677.535L181.249 678.436C178.792 679.618 176.317 680.769 173.826 681.89L173.416 680.977C170.935 682.093 168.437 683.178 165.924 684.232L166.31 685.154C163.796 686.208 161.266 687.231 158.72 688.222L158.357 687.29C155.823 688.277 153.273 689.232 150.708 690.155L151.047 691.096C148.482 692.019 145.902 692.91 143.308 693.769L142.994 692.82C140.413 693.675 137.818 694.497 135.208 695.287L135.498 696.244C132.889 697.034 130.267 697.791 127.631 698.516L127.366 697.551C124.745 698.272 122.111 698.959 119.465 699.614L119.705 700.585C117.059 701.239 114.401 701.86 111.73 702.448L111.515 701.472C108.862 702.056 106.196 702.607 103.519 703.124L103.709 704.106C101.034 704.623 98.3464 705.107 95.6478 705.557L95.4833 704.571C92.8047 705.018 90.1148 705.431 87.4142 705.811L87.5534 706.801C84.8553 707.18 82.1466 707.526 79.4276 707.837L79.3138 706.843C76.6167 707.152 73.9094 707.428 71.1924 707.669L71.2809 708.665C68.5676 708.906 65.8447 709.113 63.1125 709.285L63.0494 708.287C60.3408 708.459 57.623 708.596 54.8965 708.699L54.9343 709.698C52.2132 709.801 49.4835 709.87 46.7455 709.905L46.7329 708.905C45.3681 708.922 44.0013 708.931 42.6324 708.931C41.2635 708.931 39.8966 708.922 38.5318 708.905L38.5192 709.905C35.7812 709.87 33.0514 709.801 30.3303 709.698L30.3681 708.699C27.6417 708.596 24.9239 708.459 22.2153 708.287L22.1522 709.285C19.42 709.113 16.6971 708.906 13.9838 708.665L14.0722 707.669C11.3553 707.428 8.64804 707.152 5.95096 706.843L5.83716 707.837C3.11813 707.526 0.409393 707.18 -2.28864 706.801L-2.14948 705.811C-4.8501 705.431 -7.53995 705.018 -10.2186 704.571L-10.3831 705.557C-13.0816 705.107 -15.7688 704.623 -18.4443 704.106L-18.2545 703.124C-20.9317 702.607 -23.597 702.056 -26.2502 701.471L-26.4652 702.448C-29.136 701.86 -31.7944 701.239 -34.44 700.585L-34.1999 699.614C-36.8467 698.959 -39.4805 698.272 -42.1011 697.551L-42.3661 698.516C-45.0021 697.791 -47.6246 697.034 -50.2332 696.244L-49.9435 695.287C-52.5527 694.497 -55.1481 693.674 -57.7289 692.82L-58.0433 693.769C-60.6375 692.91 -63.2173 692.019 -65.782 691.096L-65.4433 690.155C-68.0083 689.232 -70.5581 688.277 -73.0924 687.29L-73.4552 688.222C-76.0011 687.231 -78.5313 686.208 -81.0454 685.154L-80.6588 684.232C-83.1726 683.178 -85.6703 682.093 -88.1513 680.977L-88.5614 681.889C-91.0524 680.769 -93.5267 679.618 -95.9837 678.436L-95.5504 677.535C-98.0065 676.354 -100.445 675.142 -102.867 673.901L-103.323 674.79C-105.753 673.544 -108.165 672.268 -110.559 670.962L-110.08 670.084C-112.472 668.779 -114.846 667.444 -117.201 666.08L-117.702 666.946C-120.065 665.577 -122.409 664.179 -124.734 662.753L-124.211 661.9C-126.533 660.475 -128.835 659.022 -131.118 657.539L-131.662 658.378C-133.953 656.891 -136.223 655.376 -138.473 653.832L-137.907 653.007C-140.153 651.467 -142.378 649.898 -144.583 648.302L-145.169 649.112C-147.381 647.511 -149.572 645.882 -151.741 644.226L-151.135 643.431C-153.299 641.779 -155.442 640.1 -157.563 638.394L-158.189 639.173C-160.317 637.462 -162.423 635.725 -164.507 633.961L-163.86 633.197C-165.938 631.438 -167.993 629.653 -170.026 627.843L-170.691 628.589C-172.729 626.773 -174.745 624.931 -176.737 623.064L-176.053 622.335C-178.039 620.473 -180.002 618.587 -181.941 616.676L-182.643 617.388C-184.587 615.472 -186.507 613.531 -188.403 611.566L-187.683 610.872C-189.573 608.913 -191.438 606.93 -193.279 604.924L-194.015 605.599C-195.861 603.588 -197.681 601.553 -199.475 599.495L-198.722 598.838C-200.51 596.786 -202.274 594.712 -204.011 592.615L-204.781 593.253C-206.522 591.152 -208.238 589.028 -209.926 586.882L-209.141 586.264C-210.824 584.125 -212.481 581.964 -214.111 579.782L-214.912 580.381C-216.545 578.195 -218.151 575.988 -219.73 573.76L-218.914 573.182C-220.488 570.961 -222.034 568.719 -223.553 566.457L-224.383 567.015C-225.903 564.75 -227.396 562.466 -228.861 560.161L-228.017 559.625C-229.476 557.328 -230.908 555.011 -232.311 552.675L-233.168 553.19C-234.572 550.852 -235.948 548.495 -237.295 546.119L-236.425 545.626C-237.767 543.259 -239.079 540.873 -240.363 538.469L-241.245 538.94C-242.53 536.535 -243.784 534.111 -245.01 531.67L-244.116 531.221C-245.336 528.79 -246.527 526.341 -247.688 523.875L-248.593 524.301C-249.754 521.834 -250.885 519.35 -251.985 516.849L-251.07 516.446C-252.165 513.957 -253.231 511.451 -254.265 508.93L-255.19 509.309C-256.225 506.787 -257.229 504.249 -258.202 501.695L-257.268 501.339C-258.236 498.798 -259.173 496.242 -260.078 493.671L-261.022 494.003C-261.927 491.432 -262.802 488.846 -263.644 486.245L-262.693 485.937C-263.531 483.351 -264.337 480.751 -265.112 478.137L-266.07 478.422C-266.845 475.808 -267.587 473.181 -268.298 470.54L-267.332 470.28C-268.038 467.656 -268.711 465.019 -269.353 462.369L-270.325 462.605C-270.966 459.955 -271.575 457.293 -272.151 454.619L-271.173 454.409C-271.745 451.753 -272.285 449.086 -272.792 446.407L-273.774 446.593C-274.281 443.915 -274.755 441.226 -275.196 438.525L-274.209 438.364C-274.646 435.684 -275.051 432.993 -275.422 430.292L-276.413 430.428C-276.784 427.728 -277.123 425.018 -277.427 422.298L-276.434 422.187C-276.736 419.489 -277.005 416.781 -277.242 414.064L-278.238 414.151C-278.474 411.437 -278.676 408.713 -278.845 405.98L-277.847 405.919C-278.015 403.21 -278.149 400.492 -278.25 397.765L-279.249 397.802C-279.35 395.081 -279.417 392.351 -279.451 389.613L-278.451 389.601C-278.468 388.236 -278.477 386.869 -278.477 385.5C-278.477 384.131 -278.468 382.764 -278.451 381.399L-279.451 381.386C-279.417 378.648 -279.35 375.919 -279.249 373.197L-278.25 373.234C-278.149 370.508 -278.015 367.79 -277.847 365.081L-278.845 365.019C-278.676 362.286 -278.474 359.563 -278.238 356.849L-277.242 356.935C-277.005 354.218 -276.736 351.511 -276.434 348.813L-277.427 348.702C-277.123 345.981 -276.784 343.271 -276.413 340.572L-275.422 340.708C-275.051 338.006 -274.646 335.316 -274.209 332.636L-275.196 332.475C-274.755 329.774 -274.281 327.084 -273.774 324.407L-272.792 324.592C-272.285 321.913 -271.745 319.246 -271.173 316.591L-272.151 316.38C-271.575 313.706 -270.966 311.044 -270.324 308.395L-269.353 308.63C-268.711 305.98 -268.038 303.343 -267.332 300.72L-268.298 300.46C-267.587 297.819 -266.845 295.192 -266.07 292.578L-265.112 292.862C-264.337 290.248 -263.531 287.648 -262.693 285.063L-263.644 284.754C-262.802 282.154 -261.927 279.568 -261.021 276.997L-260.078 277.329C-259.173 274.758 -258.236 272.202 -257.268 269.661L-258.202 269.305C-257.229 266.751 -256.225 264.213 -255.19 261.691L-254.265 262.07C-253.231 259.548 -252.165 257.042 -251.07 254.553L-251.985 254.15C-250.885 251.65 -249.753 249.166 -248.592 246.699L-247.688 247.125C-246.527 244.659 -245.336 242.21 -244.116 239.778L-245.01 239.33C-243.784 236.889 -242.529 234.465 -241.245 232.06L-240.363 232.531C-239.079 230.127 -237.767 227.741 -236.425 225.374L-237.295 224.88C-235.948 222.505 -234.572 220.148 -233.168 217.81L-232.311 218.325C-230.908 215.989 -229.476 213.672 -228.017 211.375L-228.861 210.839C-227.396 208.534 -225.903 206.249 -224.383 203.985L-223.553 204.542C-222.034 202.28 -220.488 200.039 -218.914 197.818L-219.73 197.24C-218.151 195.012 -216.545 192.805 -214.912 190.619L-214.111 191.217C-212.481 189.035 -210.824 186.875 -209.141 184.736L-209.926 184.118C-208.238 181.972 -206.522 179.848 -204.781 177.747L-204.011 178.385C-202.274 176.288 -200.51 174.214 -198.722 172.162L-199.475 171.505C-197.681 169.447 -195.861 167.412 -194.016 165.4L-193.279 166.076C-191.438 164.07 -189.573 162.087 -187.683 160.128L-188.403 159.434C-186.507 157.469 -184.587 155.528 -182.643 153.611L-181.941 154.324C-180.002 152.413 -178.039 150.526 -176.053 148.665L-176.737 147.935C-174.745 146.068 -172.729 144.227 -170.691 142.41L-170.026 143.157C-167.993 141.346 -165.938 139.561 -163.861 137.802L-164.507 137.039C-162.423 135.275 -160.317 133.537 -158.189 131.826L-157.563 132.606C-155.442 130.9 -153.299 129.221 -151.135 127.569L-151.741 126.774C-149.572 125.118 -147.381 123.489 -145.169 121.888L-144.583 122.698C-142.378 121.102 -140.153 119.533 -137.907 117.992L-138.473 117.168C-136.223 115.624 -133.953 114.109 -131.662 112.622L-131.118 113.46C-128.835 111.978 -126.533 110.524 -124.211 109.099L-124.734 108.247C-122.409 106.82 -120.065 105.422 -117.702 104.054L-117.201 104.919C-114.846 103.555 -112.472 102.221 -110.08 100.915L-110.559 100.038C-108.165 98.7317 -105.753 97.4554 -103.323 96.2092L-102.867 97.099C-100.445 95.8574 -98.0065 94.6457 -95.5503 93.4645L-95.9837 92.5633C-93.5266 91.3817 -91.0524 90.2305 -88.5614 89.1103L-88.1512 90.0223C-85.6702 88.9065 -83.1726 87.8215 -80.6588 86.7678L-81.0454 85.8455C-78.5312 84.7916 -76.001 83.7689 -73.4551 82.7778L-73.0923 83.7097C-70.558 82.7231 -68.0082 81.768 -65.4433 80.8448L-65.7819 79.9039C-63.2172 78.9808 -60.6374 78.0895 -58.0432 77.2305L-57.7288 78.1798C-55.1479 77.3252 -52.5526 76.5027 -49.9433 75.7128L-50.2331 74.7557C-47.6245 73.9659 -45.002 73.2086 -42.366 72.4841L-42.1009 73.4483C-39.4804 72.7281 -36.8465 72.0405 -34.1998 71.3859L-34.4398 70.4152C-31.7943 69.7609 -29.1358 69.1396 -26.465 68.5516L-26.25 69.5282C-23.5969 68.9441 -20.9315 68.3931 -18.2543 67.8755L-18.4441 66.8937C-15.7686 66.3765 -13.0815 65.8926 -10.3829 65.4425L-10.2184 66.4289C-7.53976 65.9821 -4.84991 65.5688 -2.14932 65.1892L-2.28848 64.1989C0.409576 63.8198 3.11829 63.4742 5.83731 63.1628L5.95111 64.1563C8.64822 63.8474 11.3555 63.5721 14.0724 63.331L13.984 62.3349C16.6973 62.094 19.4202 61.887 22.1524 61.7144L22.2155 62.7124C24.9241 62.5412 27.6419 62.4039 30.3683 62.3007L30.3306 61.3015C33.0517 61.1985 35.7814 61.1296 38.5194 61.0951L38.532 62.095C39.8968 62.0778 41.2636 62.0692 42.6324 62.0692C44.0014 62.0692 45.3683 62.0778 46.7331 62.095L46.7457 61.0951C49.4837 61.1296 52.2134 61.1986 54.9345 61.3015L54.8968 62.3008C57.6232 62.4039 60.341 62.5412 63.0496 62.7124L63.1127 61.7144C65.8449 61.8871 68.5678 62.094 71.2811 62.3349L71.1927 63.331C73.9096 63.5722 76.6169 63.8474 79.3139 64.1563L79.4277 63.1628C82.1468 63.4743 84.8555 63.8198 87.5536 64.199L87.4144 65.1892C90.115 65.5688 92.8048 65.9822 95.4835 66.4289L95.648 65.4426C98.3465 65.8926 101.034 66.3765 103.709 66.8937L103.519 67.8756C106.197 68.3931 108.862 68.9442 111.515 69.5282L111.73 68.5516C114.401 69.1396 117.059 69.7609 119.705 70.4152L119.465 71.386C122.112 72.0405 124.745 72.7282 127.366 73.4484L127.631 72.4841C130.267 73.2086 132.889 73.9659 135.498 74.7557L135.208 75.7128C137.818 76.5028 140.413 77.3253 142.994 78.1798L143.308 77.2305C145.902 78.0895 148.482 78.9808 151.047 79.9039L150.708 80.8448C153.273 81.768 155.823 82.7232 158.357 83.7097L158.72 82.7779C161.266 83.7689 163.796 84.7917 166.31 85.8455L165.924 86.7678C168.438 87.8215 170.935 88.9065 173.416 90.0223L173.826 89.1103C176.317 90.2305 178.792 91.3817 181.249 92.5633L180.815 93.4645C183.271 94.6457 185.71 95.8574 188.131 97.0991L188.588 96.2093C191.018 97.4554 193.43 98.7317 195.824 100.038L195.345 100.915C197.737 102.221 200.111 103.555 202.466 104.919L202.967 104.054C205.33 105.422 207.674 106.82 209.999 108.247L209.475 109.099C211.797 110.524 214.1 111.978 216.383 113.46L216.927 112.622C219.217 114.109 221.488 115.624 223.738 117.168L223.172 117.992C225.418 119.533 227.643 121.102 229.848 122.698L230.434 121.888C232.646 123.489 234.837 125.118 237.006 126.774L236.4 127.569C238.564 129.221 240.707 130.9 242.828 132.606L243.454 131.826C245.582 133.537 247.688 135.275 249.771 137.039L249.125 137.802C251.203 139.561 253.258 141.346 255.29 143.157L255.956 142.41C257.994 144.227 260.01 146.068 262.002 147.935L261.318 148.665C263.304 150.526 265.267 152.413 267.206 154.324L267.908 153.611C269.852 155.528 271.772 157.469 273.668 159.434L272.948 160.128C274.838 162.087 276.703 164.07 278.543 166.076L279.28 165.4C281.125 167.412 282.946 169.447 284.74 171.505L283.986 172.162C285.775 174.213 287.539 176.288 289.276 178.385L290.046 177.747C291.787 179.848 293.502 181.972 295.191 184.118L294.406 184.736C296.089 186.875 297.746 189.035 299.376 191.217L300.177 190.619C301.81 192.805 303.416 195.012 304.995 197.24L304.179 197.818C305.753 200.039 307.299 202.28 308.818 204.542L309.648 203.985C311.168 206.249 312.661 208.534 314.126 210.839L313.282 211.375C314.741 213.672 316.173 215.989 317.576 218.325L318.433 217.81C319.837 220.148 321.213 222.505 322.56 224.88L321.69 225.374C323.031 227.741 324.344 230.127 325.628 232.531L326.51 232.06C327.794 234.465 329.049 236.889 330.275 239.33L329.381 239.778C330.601 242.21 331.792 244.659 332.953 247.125L333.857 246.699C335.018 249.166 336.149 251.65 337.25 254.15L336.335 254.553C337.43 257.043 338.496 259.548 339.53 262.07L340.455 261.691C341.49 264.213 342.494 266.751 343.467 269.305L342.533 269.661C343.5 272.202 344.438 274.758 345.343 277.329L346.286 276.997C347.192 279.568 348.067 282.154 348.909 284.755L347.958 285.063C348.796 287.649 349.602 290.248 350.377 292.862L351.335 292.578C352.11 295.192 352.852 297.819 353.562 300.46L352.597 300.72C353.302 303.344 353.976 305.981 354.617 308.63L355.589 308.395C356.231 311.044 356.839 313.706 357.416 316.38L356.438 316.591C357.01 319.246 357.55 321.914 358.057 324.593L359.039 324.407C359.546 327.085 360.02 329.774 360.46 332.475L359.474 332.636C359.911 335.316 360.316 338.007 360.687 340.708L361.678 340.572C362.049 343.271 362.387 345.982 362.692 348.702L361.699 348.813C362.001 351.511 362.27 354.218 362.506 356.936L363.503 356.849C363.738 359.563 363.941 362.287 364.11 365.019L363.112 365.081C363.279 367.79 363.414 370.508 363.515 373.234L364.514 373.197Z" stroke="url(#paint0_linear_56_482)" stroke-width="2" stroke-dasharray="8.07 8.07"/>
<path d="M303.109 385.5C303.109 530.405 186.483 647.861 42.632 647.861C-101.219 647.861 -217.845 530.405 -217.845 385.5C-217.845 240.595 -101.219 123.139 42.632 123.139C186.483 123.139 303.109 240.595 303.109 385.5Z" stroke="url(#paint1_linear_56_482)" stroke-width="2"/>
<path d="M243.136 373.625C243.287 376.246 243.388 378.881 243.439 381.528L242.439 381.547C242.464 382.862 242.476 384.179 242.476 385.5C242.476 386.821 242.464 388.138 242.439 389.453L243.439 389.472C243.388 392.119 243.287 394.754 243.136 397.375L242.138 397.318C241.987 399.949 241.785 402.567 241.535 405.17L242.53 405.266C242.276 407.904 241.972 410.528 241.618 413.135L240.627 413.001C240.273 415.612 239.869 418.207 239.417 420.785L240.401 420.958C239.944 423.564 239.437 426.152 238.882 428.723L237.904 428.512C237.348 431.084 236.744 433.637 236.091 436.172L237.06 436.421C236.4 438.984 235.691 441.527 234.935 444.05L233.977 443.763C233.222 446.285 232.418 448.785 231.568 451.264L232.514 451.589C231.656 454.09 230.75 456.569 229.799 459.024L228.866 458.663C227.916 461.115 226.919 463.544 225.878 465.949L226.795 466.346C225.745 468.771 224.648 471.17 223.507 473.544L222.606 473.111C221.466 475.481 220.282 477.826 219.054 480.143L219.938 480.611C218.7 482.946 217.419 485.254 216.094 487.533L215.23 487.031C213.909 489.304 212.546 491.548 211.14 493.763L211.984 494.299C210.569 496.528 209.112 498.728 207.614 500.898L206.791 500.329C205.298 502.491 203.763 504.622 202.189 506.721L202.989 507.321C201.405 509.433 199.78 511.513 198.117 513.56L197.341 512.929C195.684 514.968 193.988 516.973 192.254 518.944L193.005 519.604C191.261 521.586 189.479 523.533 187.661 525.445L186.937 524.755C185.126 526.658 183.279 528.525 181.397 530.355L182.094 531.072C180.202 532.911 178.274 534.713 176.311 536.478L175.643 535.734C173.69 537.489 171.703 539.206 169.683 540.884L170.322 541.653C168.292 543.339 166.229 544.985 164.134 546.59L163.526 545.797C161.443 547.393 159.328 548.949 157.182 550.464L157.758 551.281C155.604 552.802 153.418 554.281 151.203 555.717L150.659 554.878C148.457 556.306 146.226 557.691 143.967 559.032L144.477 559.892C142.21 561.238 139.914 562.541 137.591 563.799L137.115 562.919C134.808 564.168 132.475 565.372 130.115 566.531L130.556 567.429C128.192 568.59 125.801 569.707 123.385 570.776L122.98 569.862C120.584 570.923 118.163 571.938 115.718 572.906L116.086 573.836C113.637 574.806 111.164 575.728 108.669 576.603L108.339 575.659C105.865 576.526 103.37 577.346 100.853 578.116L101.146 579.073C98.6282 579.844 96.0895 580.566 93.5309 581.239L93.2764 580.272C90.7454 580.938 88.1947 581.555 85.6256 582.123L85.8412 583.099C83.2727 583.666 80.6858 584.184 78.0816 584.651L77.905 583.667C75.3287 584.129 72.7352 584.541 70.1256 584.903L70.2629 585.893C67.6562 586.255 65.0335 586.566 62.3959 586.825L62.298 585.83C59.6958 586.086 57.0789 586.292 54.4484 586.446L54.507 587.444C51.8858 587.598 49.2511 587.702 46.6039 587.753L46.5844 586.754C45.27 586.779 43.9525 586.792 42.632 586.792C41.3115 586.792 39.994 586.779 38.6796 586.754L38.6601 587.753C36.0128 587.702 33.3782 587.598 30.757 587.444L30.8156 586.446C28.1851 586.292 25.5682 586.086 22.966 585.83L22.8681 586.825C20.2305 586.566 17.6078 586.255 15.0011 585.893L15.1384 584.903C12.5288 584.541 9.93538 584.129 7.35902 583.667L7.18246 584.651C4.5782 584.184 1.99132 583.666 -0.577164 583.099L-0.361542 582.123C-2.93068 581.555 -5.48132 580.938 -8.01239 580.272L-8.26682 581.239C-10.8254 580.566 -13.3641 579.844 -15.8819 579.073L-15.5891 578.116C-18.1056 577.346 -20.6011 576.526 -23.0745 575.659L-23.4053 576.603C-25.9003 575.729 -28.3729 574.806 -30.822 573.836L-30.4538 572.906C-32.8985 571.938 -35.3197 570.923 -37.7163 569.862L-38.1211 570.776C-40.5368 569.707 -42.9275 568.591 -45.2923 567.429L-44.8514 566.531C-47.2109 565.372 -49.5443 564.168 -51.8507 562.919L-52.3268 563.799C-54.65 562.541 -56.9458 561.238 -59.2131 559.892L-58.7026 559.032C-60.9621 557.691 -63.1932 556.306 -65.3947 554.878L-65.9388 555.717C-68.1541 554.281 -70.3397 552.802 -72.4942 551.281L-71.9176 550.464C-74.0636 548.949 -76.1788 547.393 -78.2619 545.797L-78.8701 546.591C-80.9652 544.985 -83.0281 543.339 -85.0575 541.653L-84.4186 540.884C-86.439 539.206 -88.4261 537.489 -90.3788 535.734L-91.0473 536.478C-93.0098 534.714 -94.9377 532.911 -96.8299 531.072L-96.1329 530.355C-98.0154 528.525 -99.8623 526.658 -101.672 524.755L-102.397 525.445C-104.215 523.533 -105.997 521.586 -107.74 519.604L-106.99 518.944C-108.724 516.973 -110.42 514.968 -112.077 512.929L-112.853 513.56C-114.516 511.513 -116.141 509.433 -117.725 507.321L-116.925 506.721C-118.499 504.622 -120.034 502.491 -121.527 500.329L-122.35 500.898C-123.848 498.729 -125.305 496.528 -126.72 494.299L-125.876 493.763C-127.282 491.548 -128.645 489.304 -129.966 487.031L-130.83 487.533C-132.155 485.254 -133.436 482.946 -134.674 480.611L-133.79 480.143C-135.018 477.826 -136.202 475.481 -137.342 473.111L-138.243 473.544C-139.384 471.17 -140.48 468.771 -141.531 466.346L-140.613 465.949C-141.655 463.544 -142.652 461.115 -143.602 458.663L-144.535 459.024C-145.486 456.569 -146.392 454.09 -147.25 451.589L-146.304 451.264C-147.154 448.786 -147.958 446.285 -148.713 443.763L-149.671 444.05C-150.427 441.528 -151.136 438.984 -151.796 436.421L-150.827 436.172C-151.48 433.637 -152.084 431.084 -152.64 428.512L-153.618 428.723C-154.173 426.152 -154.68 423.564 -155.137 420.958L-154.153 420.785C-154.605 418.207 -155.009 415.612 -155.363 413.001L-156.354 413.135C-156.708 410.528 -157.012 407.904 -157.266 405.266L-156.27 405.17C-156.521 402.567 -156.723 399.949 -156.874 397.318L-157.872 397.375C-158.023 394.754 -158.124 392.119 -158.174 389.472L-157.175 389.453C-157.2 388.138 -157.212 386.821 -157.212 385.5C-157.212 384.179 -157.2 382.862 -157.175 381.547L-158.174 381.528C-158.124 378.881 -158.023 376.246 -157.872 373.625L-156.874 373.682C-156.723 371.051 -156.521 368.433 -156.27 365.83L-157.266 365.734C-157.012 363.096 -156.708 360.473 -156.354 357.865L-155.363 357.999C-155.009 355.388 -154.605 352.793 -154.153 350.215L-155.137 350.043C-154.68 347.436 -154.173 344.848 -153.618 342.277L-152.64 342.488C-152.084 339.916 -151.48 337.363 -150.827 334.828L-151.796 334.579C-151.136 332.016 -150.427 329.473 -149.671 326.95L-148.713 327.237C-147.958 324.715 -147.154 322.215 -146.304 319.736L-147.25 319.411C-146.392 316.91 -145.486 314.431 -144.535 311.976L-143.602 312.337C-142.652 309.885 -141.655 307.456 -140.613 305.051L-141.531 304.654C-140.48 302.23 -139.384 299.83 -138.243 297.456L-137.342 297.889C-136.202 295.519 -135.018 293.174 -133.79 290.857L-134.674 290.389C-133.436 288.054 -132.155 285.746 -130.83 283.467L-129.966 283.969C-128.645 281.696 -127.282 279.452 -125.876 277.237L-126.72 276.702C-125.305 274.472 -123.848 272.272 -122.35 270.103L-121.527 270.671C-120.034 268.509 -118.499 266.378 -116.925 264.279L-117.725 263.679C-116.141 261.567 -114.516 259.487 -112.853 257.44L-112.077 258.071C-110.42 256.032 -108.724 254.027 -106.99 252.056L-107.741 251.396C-105.997 249.414 -104.215 247.467 -102.397 245.556L-101.673 246.245C-99.8623 244.342 -98.0154 242.475 -96.1329 240.645L-96.8299 239.928C-94.9378 238.089 -93.0099 236.287 -91.0473 234.523L-90.3788 235.266C-88.4261 233.511 -86.439 231.794 -84.4186 230.116L-85.0575 229.347C-83.0281 227.661 -80.9653 226.015 -78.8702 224.41L-78.2619 225.203C-76.1788 223.607 -74.0637 222.051 -71.9176 220.536L-72.4943 219.719C-70.3397 218.199 -68.1542 216.719 -65.9388 215.283L-65.3948 216.122C-63.1933 214.695 -60.9622 213.309 -58.7026 211.968L-59.2132 211.108C-56.9459 209.762 -54.6501 208.459 -52.3268 207.201L-51.8507 208.081C-49.5444 206.832 -47.2109 205.628 -44.8514 204.469L-45.2923 203.571C-42.9276 202.41 -40.5368 201.294 -38.1212 200.224L-37.7163 201.138C-35.3198 200.077 -32.8986 199.062 -30.4539 198.094L-30.822 197.164C-28.3729 196.194 -25.9003 195.272 -23.4054 194.397L-23.0746 195.341C-20.6012 194.474 -18.1057 193.654 -15.5891 192.884L-15.8819 191.928C-13.3642 191.156 -10.8254 190.434 -8.26682 189.761L-8.01241 190.728C-5.48134 190.062 -2.93069 189.445 -0.361542 188.877L-0.577179 187.901C1.9913 187.334 4.5782 186.816 7.18246 186.349L7.35902 187.333C9.93538 186.871 12.5288 186.459 15.1384 186.097L15.0011 185.107C17.6078 184.745 20.2305 184.435 22.8681 184.175L22.966 185.17C25.5682 184.914 28.1851 184.709 30.8157 184.554L30.757 183.556C33.3782 183.402 36.0129 183.298 38.6601 183.247L38.6797 184.247C39.994 184.221 41.3115 184.208 42.632 184.208C43.9525 184.208 45.2701 184.221 46.5844 184.247L46.604 183.247C49.2512 183.298 51.8859 183.402 54.507 183.556L54.4484 184.554C57.079 184.709 59.6958 184.914 62.298 185.17L62.3959 184.175C65.0335 184.435 67.6562 184.745 70.2629 185.107L70.1257 186.097C72.7352 186.459 75.3287 186.871 77.905 187.333L78.0816 186.349C80.6858 186.816 83.2727 187.334 85.8412 187.901L85.6256 188.877C88.1947 189.445 90.7454 190.062 93.2764 190.728L93.5309 189.761C96.0894 190.434 98.6281 191.156 101.146 191.928L100.853 192.884C103.37 193.654 105.865 194.474 108.339 195.341L108.669 194.397C111.164 195.272 113.637 196.194 116.086 197.164L115.718 198.094C118.163 199.062 120.584 200.077 122.98 201.138L123.385 200.224C125.801 201.293 128.192 202.41 130.556 203.571L130.115 204.469C132.475 205.628 134.808 206.832 137.115 208.081L137.591 207.201C139.914 208.459 142.21 209.762 144.477 211.108L143.967 211.968C146.226 213.309 148.457 214.695 150.659 216.122L151.203 215.283C153.418 216.719 155.604 218.199 157.758 219.719L157.182 220.536C159.328 222.051 161.443 223.607 163.526 225.203L164.134 224.41C166.229 226.015 168.292 227.661 170.322 229.347L169.683 230.116C171.703 231.794 173.69 233.511 175.643 235.266L176.311 234.523C178.274 236.287 180.202 238.089 182.094 239.928L181.397 240.645C183.279 242.475 185.126 244.342 186.937 246.245L187.661 245.555C189.479 247.467 191.261 249.414 193.005 251.396L192.254 252.056C193.988 254.027 195.684 256.032 197.341 258.071L198.117 257.44C199.78 259.487 201.405 261.567 202.989 263.679L202.189 264.279C203.763 266.378 205.298 268.509 206.791 270.671L207.614 270.102C209.112 272.272 210.569 274.472 211.984 276.702L211.14 277.237C212.546 279.452 213.909 281.696 215.23 283.969L216.094 283.467C217.419 285.746 218.7 288.054 219.938 290.389L219.054 290.857C220.282 293.174 221.466 295.519 222.606 297.889L223.507 297.456C224.648 299.83 225.744 302.229 226.795 304.654L225.877 305.051C226.919 307.456 227.916 309.885 228.866 312.337L229.799 311.976C230.75 314.431 231.656 316.91 232.514 319.411L231.568 319.736C232.418 322.215 233.222 324.715 233.977 327.237L234.935 326.95C235.691 329.473 236.4 332.016 237.06 334.579L236.091 334.828C236.744 337.363 237.348 339.916 237.904 342.488L238.882 342.277C239.437 344.848 239.944 347.436 240.401 350.043L239.417 350.215C239.869 352.793 240.273 355.388 240.627 357.999L241.618 357.865C241.972 360.473 242.276 363.096 242.53 365.734L241.535 365.83C241.785 368.433 241.987 371.051 242.138 373.682L243.136 373.625Z" stroke="url(#paint2_linear_56_482)" stroke-width="2" stroke-dasharray="8.07 8.07"/>
<ellipse cx="42.6321" cy="385.5" rx="140.212" ry="141.223" fill="url(#paint3_radial_56_482)"/>
<path d="M-339.973 405.503C-447.97 440.672 -509.537 470.266 -505.243 493.561C-497.192 537.226 -246.288 526.916 55.1673 470.532C356.622 414.149 594.474 333.043 586.423 289.377C582.135 266.121 515.822 257.19 402.811 263.362" stroke="#6E26CD" stroke-width="2"/>
<defs>
<linearGradient id="paint0_linear_56_482" x1="-150.633" y1="103.054" x2="302.58" y2="706.811" gradientUnits="userSpaceOnUse">
<stop stop-color="#6E26CD"/>
<stop offset="1" stop-color="#6E26CD"/>
</linearGradient>
<linearGradient id="paint1_linear_56_482" x1="-88.1063" y1="175.574" x2="233.356" y2="646.717" gradientUnits="userSpaceOnUse">
<stop stop-color="#BB6BD9"/>
<stop offset="1" stop-color="#BB6BD9"/>
</linearGradient>
<linearGradient id="paint2_linear_56_482" x1="-80.5273" y1="232.827" x2="234.512" y2="568.359" gradientUnits="userSpaceOnUse">
<stop stop-color="#4C0AA3"/>
<stop offset="1" stop-color="#BB6BD9"/>
</linearGradient>
<radialGradient id="paint3_radial_56_482" cx="0" cy="0" r="1" gradientUnits="userSpaceOnUse" gradientTransform="translate(42.6321 385.5) rotate(90) scale(169.849 168.634)">
<stop stop-color="#6E26CD"/>
<stop offset="1" stop-color="white" stop-opacity="0"/>
</radialGradient>
</defs>
</svg>
