<svg width="25" height="24" viewBox="0 0 25 24" fill="none" xmlns="http://www.w3.org/2000/svg">
<path d="M24.4467 1.02871C24.5013 0.892413 24.5146 0.743103 24.4851 0.599288C24.4556 0.455474 24.3845 0.32348 24.2807 0.21967C24.1769 0.11586 24.0449 0.0448002 23.9011 0.015299C23.7573 -0.0142021 23.608 -0.000846891 23.4717 0.0537091L1.6512 8.78221H1.6497L0.971697 9.05221C0.843283 9.10343 0.731526 9.18915 0.648771 9.2999C0.566016 9.41066 0.515484 9.54213 0.502758 9.67979C0.490031 9.81746 0.515604 9.95597 0.576653 10.08C0.637702 10.2041 0.73185 10.3088 0.848697 10.3827L1.4637 10.7727L1.4652 10.7757L8.9577 15.5427L13.7247 23.0352L13.7277 23.0382L14.1177 23.6532C14.1918 23.7696 14.2966 23.8633 14.4206 23.924C14.5446 23.9846 14.6828 24.0099 14.8202 23.997C14.9576 23.9842 15.0888 23.9336 15.1994 23.851C15.3099 23.7684 15.3955 23.6569 15.4467 23.5287L24.4467 1.02871ZM21.6972 3.86371L10.4562 15.1047L10.1337 14.5977C10.0746 14.5047 9.99574 14.4258 9.9027 14.3667L9.3957 14.0442L20.6367 2.80321L22.4037 2.09671L21.6987 3.86371H21.6972Z" fill="#EEEEEE"/>
</svg>
